<svg width="717" height="193" viewBox="0 0 717 193" fill="none" xmlns="http://www.w3.org/2000/svg">
<path d="M226.474 109.245C226.474 103.33 224.814 98.7835 221.543 95.7037C218.712 93.064 214.953 91.5485 209.29 90.7664L201.577 89.642C199.038 89.2999 196.793 88.3222 195.328 86.9534C194.01 85.7313 193.278 83.9226 193.278 81.9672C193.278 76.6877 197.379 73.3146 203.774 73.3146C208.07 73.3146 212.951 73.8524 217.15 77.6653L224.619 70.2349C219.346 65.2487 213 63 204.115 63C190.544 63 181.806 70.626 181.806 82.4071C181.806 87.7844 183.319 91.8907 186.346 94.9705C189.177 97.708 193.229 99.4678 198.746 100.25L206.605 101.374C209.583 101.814 211.194 102.45 212.61 103.77C214.025 105.09 214.758 107.094 214.758 109.587C214.758 115.062 210.51 118.044 202.797 118.044C195.963 118.044 190.788 116.284 187.029 112.716L179.365 120.39C185.174 126.159 192.155 128.603 202.602 128.603C217.15 128.652 226.474 121.026 226.474 109.245Z" fill="#FF9517"/>
<path d="M257.326 63.5867H245.415V128.114H257.326V63.5867Z" fill="#FF9517"/>
<path d="M405.973 83.5315C405.973 71.7993 397.284 63.5867 384.836 63.5867H359.939V128.114H371.85V103.525H384.787C397.284 103.525 405.973 95.3127 405.973 83.5315ZM371.899 92.8685V74.1457H384.201C390.108 74.1457 394.062 77.9098 394.062 83.5315C394.062 89.1044 390.108 92.8196 384.201 92.8196H371.899V92.8685Z" fill="#FF9517"/>
<path d="M422.229 63.5867V128.114H463.724V117.555H434.141V63.5867H422.229Z" fill="#FF9517"/>
<path d="M492.965 63.5867H481.054V128.114H492.965V63.5867Z" fill="#FF9517"/>
<path d="M592.357 63.5867H580.445V128.114H592.357V63.5867Z" fill="#FF9517"/>
<path d="M655.721 63.5867H609.687V74.1457H626.724V128.114H638.684V74.1457H655.721V63.5867Z" fill="#FF9517"/>
<path d="M703.903 63.5867L691.65 90.4731L679.202 63.5867H666.265L685.597 101.717V128.114H697.459L697.508 101.521L716.791 63.5867H703.903Z" fill="#FF9517"/>
<path d="M541.489 117.897C540.659 117.995 539.878 118.044 539.097 118.044C528.113 118.044 523.183 106.898 523.183 95.8015C523.183 84.7536 528.113 73.5591 539.097 73.5591C539.878 73.5591 540.708 73.608 541.489 73.7057C545.834 74.439 550.96 77.2743 552.815 82.1138L562.529 76.3944C560.967 73.3635 555.304 64.7599 542.075 63.3911L541.587 63.3422C540.562 63.2444 539.683 63.1956 538.853 63.1956C536.803 63.1956 534.704 63.44 532.702 63.9288L532.263 64.0266C531.872 64.1244 531.482 64.2221 531.091 64.3688C518.741 67.8885 511.223 79.8652 511.418 95.606V95.6548C511.418 95.7037 511.418 95.7037 511.418 95.7526C511.418 95.8015 511.418 95.8015 511.418 95.8504V95.8993C511.223 111.64 518.741 123.617 531.091 127.136C531.482 127.234 531.872 127.381 532.263 127.479L532.702 127.576C534.704 128.065 536.754 128.31 538.853 128.31C539.683 128.31 540.562 128.261 541.587 128.163L542.075 128.114C555.304 126.745 560.967 118.142 562.529 115.111L552.815 109.391C550.96 114.329 545.834 117.164 541.489 117.897Z" fill="#FF9517"/>
<path d="M337.727 128.114V63.6355H326.158L308.632 92.7707L291.107 63.6355H279.538V128.114H291.01V84.998L308.681 115.258L326.304 84.998V128.114H337.727Z" fill="#FF9517"/>
<rect x="96.0328" y="55" width="58.0523" height="58.0523" transform="rotate(45 96.0328 55)" fill="white"/>
<rect x="41.0492" width="58.0523" height="58.0523" transform="rotate(45 41.0492 0)" fill="#FF9517"/>
<rect x="41.0492" y="110" width="58.0523" height="58.0523" transform="rotate(45 41.0492 110)" fill="#FF9517"/>
</svg>
