<svg width="15" height="16" viewBox="0 0 15 16" fill="none" xmlns="http://www.w3.org/2000/svg">
<path d="M7.62549 0.833008C11.6392 0.833008 14.8911 4.08496 14.8911 8.09863C14.8911 12.1123 11.6392 15.3643 7.62549 15.3643C3.61182 15.3643 0.359863 12.1123 0.359863 8.09863C0.359863 4.08496 3.61182 0.833008 7.62549 0.833008ZM11.1704 5.81348C11.2876 5.34473 10.9946 5.13965 10.6724 5.25684L3.67041 7.95215C3.20166 8.12793 3.20166 8.4209 3.58252 8.53809L5.36963 9.09473L9.52979 6.45801C9.73486 6.34082 9.91064 6.42871 9.76416 6.5459L6.39502 9.59277L6.27783 11.4385C6.45361 11.4385 6.5415 11.3506 6.62939 11.2627L7.5083 10.4131L9.32471 11.7607C9.67627 11.9365 9.91064 11.8486 9.99854 11.4385L11.1704 5.81348Z" fill="white"/>
</svg>
