<svg xmlns="http://www.w3.org/2000/svg" width="20" height="21" viewBox="0 0 20 21" fill="none">
  <path d="M3.33317 17.3903C2.87484 17.3903 2.48248 17.2271 2.15609 16.9007C1.8297 16.5743 1.6665 16.1819 1.6665 15.7236V5.72361C1.6665 5.26528 1.8297 4.87292 2.15609 4.54653C2.48248 4.22014 2.87484 4.05695 3.33317 4.05695H16.6665C17.1248 4.05695 17.5172 4.22014 17.8436 4.54653C18.17 4.87292 18.3332 5.26528 18.3332 5.72361V15.7236C18.3332 16.1819 18.17 16.5743 17.8436 16.9007C17.5172 17.2271 17.1248 17.3903 16.6665 17.3903H3.33317ZM16.6665 7.39028L10.4373 11.2861C10.3679 11.3278 10.295 11.359 10.2186 11.3799C10.1422 11.4007 10.0693 11.4111 9.99984 11.4111C9.93039 11.4111 9.85748 11.4007 9.78109 11.3799C9.7047 11.359 9.63178 11.3278 9.56234 11.2861L3.33317 7.39028V15.7236H16.6665V7.39028ZM9.99984 9.89028L16.6665 5.72361H3.33317L9.99984 9.89028ZM3.33317 7.59861V6.36945V6.39028V6.37986V7.59861Z" fill="#55585A"/>
</svg>