    <svg width="15" height="16" viewBox="0 0 15 16" fill="none" xmlns="http://www.w3.org/2000/svg">
<path d="M5.19385 12.2588C5.19385 12.3174 5.13525 12.3467 5.04736 12.3467C4.95947 12.376 4.90088 12.3174 4.90088 12.2588C4.90088 12.2002 4.95947 12.1416 5.04736 12.1416C5.13525 12.1416 5.19385 12.2002 5.19385 12.2588ZM4.28564 12.1123C4.31494 12.0537 4.40283 12.0244 4.49072 12.0537C4.57861 12.083 4.60791 12.1416 4.60791 12.2002C4.57861 12.2588 4.49072 12.2881 4.43213 12.2588C4.34424 12.2588 4.28564 12.1709 4.28564 12.1123ZM5.604 12.083C5.6626 12.0537 5.75049 12.1123 5.75049 12.1709C5.77979 12.2295 5.72119 12.2588 5.6333 12.2881C5.54541 12.3174 5.45752 12.2881 5.45752 12.2295C5.45752 12.1416 5.51611 12.083 5.604 12.083ZM7.5083 0.833008C11.5806 0.833008 14.8911 3.93848 14.8911 7.98145C14.8911 11.2334 12.8989 14.0166 9.96924 14.9834C9.58838 15.0713 9.44189 14.8369 9.44189 14.6318C9.44189 14.3975 9.47119 13.167 9.47119 12.2002C9.47119 11.4971 9.23682 11.0576 8.97314 10.8232C10.6138 10.6475 12.3423 10.4131 12.3423 7.60059C12.3423 6.78027 12.0493 6.39941 11.5806 5.87207C11.6392 5.66699 11.9028 4.90527 11.4927 3.87988C10.8774 3.6748 9.47119 4.6709 9.47119 4.6709C8.88525 4.49512 8.27002 4.43652 7.62549 4.43652C7.01025 4.43652 6.39502 4.49512 5.80908 4.6709C5.80908 4.6709 4.37354 3.7041 3.7876 3.87988C3.37744 4.90527 3.61182 5.66699 3.69971 5.87207C3.23096 6.39941 2.99658 6.78027 2.99658 7.60059C2.99658 10.4131 4.6665 10.6475 6.30713 10.8232C6.07275 11.0283 5.89697 11.3506 5.83838 11.8193C5.39893 12.0244 4.34424 12.3467 3.69971 11.2041C3.28955 10.501 2.55713 10.4424 2.55713 10.4424C1.854 10.4424 2.52783 10.9111 2.52783 10.9111C2.99658 11.1162 3.31885 11.9658 3.31885 11.9658C3.7583 13.2842 5.80908 12.8447 5.80908 12.8447C5.80908 13.46 5.80908 14.4561 5.80908 14.6611C5.80908 14.8369 5.69189 15.0713 5.31104 15.0127C2.38135 14.0166 0.359863 11.2334 0.359863 7.98145C0.359863 3.93848 3.46533 0.833008 7.5083 0.833008ZM3.20166 10.9404C3.23096 10.9111 3.28955 10.9404 3.34814 10.9697C3.40674 11.0283 3.40674 11.1162 3.37744 11.1455C3.31885 11.1748 3.26025 11.1455 3.20166 11.1162C3.17236 11.0576 3.14307 10.9697 3.20166 10.9404ZM2.87939 10.7061C2.90869 10.6768 2.93799 10.6768 2.99658 10.7061C3.05518 10.7354 3.08447 10.7646 3.08447 10.7939C3.05518 10.8525 2.99658 10.8525 2.93799 10.8232C2.87939 10.7939 2.8501 10.7646 2.87939 10.7061ZM3.81689 11.7607C3.87549 11.7021 3.96338 11.7314 4.02197 11.79C4.08057 11.8486 4.08057 11.9365 4.05127 11.9658C4.02197 12.0244 3.93408 11.9951 3.87549 11.9365C3.7876 11.8779 3.7876 11.79 3.81689 11.7607ZM3.49463 11.3213C3.55322 11.292 3.61182 11.3213 3.67041 11.3799C3.69971 11.4385 3.69971 11.5264 3.67041 11.5557C3.61182 11.585 3.55322 11.5557 3.49463 11.4971C3.43604 11.4385 3.43604 11.3506 3.49463 11.3213Z" fill="white"/>
</svg>
